<svg width="24" height="24" viewBox="0 0 24 24" fill="none" xmlns="http://www.w3.org/2000/svg">
<path d="M9.4134 3.3786C10.4717 1.54102 13.1234 1.53992 14.181 3.3786L22.2239 17.3669C23.2772 19.1998 21.9539 21.487 19.8402 21.487H3.75422C1.63921 21.487 0.316625 19.1995 1.36945 17.3669H1.37043L9.4134 3.3786ZM12.8812 4.12665C12.4308 3.34355 11.3429 3.29402 10.8118 3.98016L10.7132 4.12665L2.67023 18.114C2.19134 18.9473 2.79332 19.987 3.75422 19.987H19.8402C20.8004 19.987 21.4029 18.947 20.9241 18.114L12.8812 4.12665ZM11.2523 16.2321C11.5309 15.9256 12.0053 15.9027 12.3118 16.1813C12.6183 16.46 12.6403 16.9344 12.3616 17.2409L12.3519 17.2516C12.0732 17.5581 11.5988 17.5811 11.2923 17.3024C10.986 17.0238 10.9639 16.5493 11.2425 16.2429L11.2523 16.2321ZM11.0472 12.737V8.737C11.0474 8.32299 11.3831 7.987 11.7972 7.987C12.2112 7.98703 12.5469 8.32301 12.5472 8.737V12.737C12.5472 13.1512 12.2114 13.487 11.7972 13.487C11.383 13.487 11.0472 13.1512 11.0472 12.737Z" fill="#0A0C36"/>
</svg>
