<svg width="24" height="24" viewBox="0 0 24 24" fill="none" xmlns="http://www.w3.org/2000/svg">
<path d="M11.0763 9.08361C11.0407 8.38888 10.7396 7.72983 10.2289 7.23564C9.71831 6.74145 9.03736 6.45 8.31952 6.41554L8.17553 6.41216C7.40528 6.41216 6.66679 6.70851 6.12213 7.23564C5.57748 7.76277 5.27128 8.4775 5.27128 9.22297C5.27128 9.96845 5.57748 10.6832 6.12213 11.2103C6.66679 11.7374 7.40528 12.0338 8.17553 12.0338L8.31952 12.0304C9.03736 11.9959 9.71831 11.7045 10.2289 11.2103C10.7736 10.6832 11.0798 9.96845 11.0798 9.22297L11.0763 9.08361ZM19.1127 7.30068C19.067 6.85528 18.8632 6.43667 18.5333 6.1174C18.1562 5.75246 17.645 5.5473 17.1117 5.5473C16.5784 5.5473 16.0672 5.75246 15.6901 6.1174C15.3131 6.48233 15.1011 6.97715 15.1011 7.49324C15.1011 8.00934 15.3131 8.50415 15.6901 8.86909C16.0672 9.23402 16.5784 9.43919 17.1117 9.43919C17.645 9.43919 18.1562 9.23402 18.5333 8.86909C18.9104 8.50415 19.1223 8.00934 19.1223 7.49324L19.1127 7.30068ZM20.4584 7.65372C20.4174 8.45545 20.0703 9.21603 19.481 9.78632C19.4311 9.83465 19.3792 9.88074 19.3265 9.92568C19.8522 10.1687 20.3318 10.4966 20.7446 10.8961C21.2218 11.3579 21.6008 11.9059 21.859 12.5093C22.1172 13.1126 22.25 13.7592 22.25 14.4122V14.8446C22.25 15.2028 21.9499 15.4932 21.5798 15.4932C21.2096 15.4932 20.9096 15.2028 20.9096 14.8446V14.4122C20.9096 13.9296 20.8115 13.4518 20.6207 13.0059C20.4299 12.56 20.1496 12.1547 19.7969 11.8133C19.4443 11.472 19.0255 11.2008 18.5647 11.016C18.1616 10.8545 17.7333 10.7614 17.2985 10.7407L17.1117 10.7365C16.1044 10.7365 15.1387 11.124 14.4265 11.8133C13.7545 12.4638 13.3597 13.3325 13.3173 14.2475C14.4623 15.4758 15.1011 17.074 15.1011 18.7365V19.6014C15.1011 19.9596 14.801 20.25 14.4309 20.25C14.0607 20.25 13.7606 19.9596 13.7606 19.6014V18.7365C13.7606 17.3029 13.1718 15.9284 12.1244 14.9147C11.077 13.901 9.65679 13.3311 8.17553 13.3311C6.69427 13.3311 5.2741 13.901 4.22669 14.9147C3.17928 15.9284 2.59043 17.3029 2.59043 18.7365V19.6014C2.59043 19.9596 2.29036 20.25 1.92021 20.25C1.55006 20.25 1.25 19.9596 1.25 19.6014V18.7365C1.25 16.9588 1.9793 15.2536 3.27809 13.9966C3.95319 13.3432 4.75398 12.8398 5.62471 12.5059C5.46653 12.3908 5.31598 12.2646 5.17441 12.1275C4.37838 11.3571 3.93085 10.3125 3.93085 9.22297C3.93085 8.13344 4.37838 7.08883 5.17441 6.31841C5.97044 5.54799 7.04977 5.11486 8.17553 5.11486L8.38585 5.11993C9.43503 5.17027 10.4303 5.59611 11.1767 6.31841C11.9727 7.08883 12.4202 8.13344 12.4202 9.22297L12.415 9.42652C12.363 10.4419 11.923 11.4052 11.1767 12.1275C11.0349 12.2647 10.8839 12.3907 10.7255 12.5059C11.2165 12.6941 11.6845 12.9369 12.1209 13.2297C12.3426 12.3534 12.8087 11.5446 13.4788 10.8961C13.8949 10.4933 14.3749 10.1667 14.896 9.92568C14.8435 9.88087 14.7922 9.8345 14.7424 9.78632C14.1139 9.17809 13.7606 8.3534 13.7606 7.49324C13.7606 6.63308 14.1139 5.8084 14.7424 5.20017C15.3708 4.59194 16.2229 4.25 17.1117 4.25C18.0005 4.25 18.8526 4.59194 19.481 5.20017C20.1095 5.8084 20.4628 6.63308 20.4628 7.49324L20.4584 7.65372Z" fill="#0A0C36"/>
</svg>
