<svg width="24" height="24" viewBox="0 0 24 24" fill="none" xmlns="http://www.w3.org/2000/svg">
<path fill-rule="evenodd" clip-rule="evenodd" d="M14.5 14.5V20H20V14.5H14.5ZM13.3954 13.3954C13.6486 13.1422 13.992 13 14.35 13H20.15C20.508 13 20.8514 13.1422 21.1046 13.3954C21.3578 13.6486 21.5 13.992 21.5 14.35V20.15C21.5 20.508 21.3578 20.8514 21.1046 21.1046C20.8514 21.3578 20.508 21.5 20.15 21.5H14.35C13.992 21.5 13.6486 21.3578 13.3954 21.1046C13.1422 20.8514 13 20.508 13 20.15V14.35C13 13.992 13.1422 13.6486 13.3954 13.3954Z" fill="#0A0C36"/>
<path fill-rule="evenodd" clip-rule="evenodd" d="M3.5 14.5V20H9V14.5H3.5ZM2.39541 13.3954C2.64858 13.1422 2.99196 13 3.35 13H9.15C9.50804 13 9.85142 13.1422 10.1046 13.3954C10.3578 13.6486 10.5 13.992 10.5 14.35V20.15C10.5 20.508 10.3578 20.8514 10.1046 21.1046C9.85142 21.3578 9.50804 21.5 9.15 21.5H3.35C2.99196 21.5 2.64858 21.3578 2.39541 21.1046C2.14223 20.8514 2 20.508 2 20.15V14.35C2 13.992 2.14223 13.6486 2.39541 13.3954Z" fill="#0A0C36"/>
<path fill-rule="evenodd" clip-rule="evenodd" d="M14.5 3.5V9H20V3.5H14.5ZM13.3954 2.39541C13.6486 2.14223 13.992 2 14.35 2H20.15C20.508 2 20.8514 2.14223 21.1046 2.39541C21.3578 2.64858 21.5 2.99196 21.5 3.35V9.15C21.5 9.50804 21.3578 9.85142 21.1046 10.1046C20.8514 10.3578 20.508 10.5 20.15 10.5H14.35C13.992 10.5 13.6486 10.3578 13.3954 10.1046C13.1422 9.85142 13 9.50804 13 9.15V3.35C13 2.99196 13.1422 2.64858 13.3954 2.39541Z" fill="#0A0C36"/>
<path fill-rule="evenodd" clip-rule="evenodd" d="M3.5 3.5V9H9V3.5H3.5ZM2.39541 2.39541C2.64858 2.14223 2.99196 2 3.35 2H9.15C9.50804 2 9.85142 2.14223 10.1046 2.39541C10.3578 2.64858 10.5 2.99196 10.5 3.35V9.15C10.5 9.50804 10.3578 9.85142 10.1046 10.1046C9.85142 10.3578 9.50804 10.5 9.15 10.5H3.35C2.99196 10.5 2.64858 10.3578 2.39541 10.1046C2.14223 9.85142 2 9.50804 2 9.15V3.35C2 2.99196 2.14223 2.64858 2.39541 2.39541Z" fill="#0A0C36"/>
</svg>
