<svg width="24" height="24" viewBox="0 0 24 24" fill="none" xmlns="http://www.w3.org/2000/svg">
<path d="M2.5 18H9.75C10.2006 18 10.6247 18.1107 11 18.3027V6.75C11 6.05964 10.4404 5.5 9.75 5.5H2.5V18ZM12.5 18.3027C12.8753 18.1107 13.2994 18 13.75 18H21V5.5H13.75C13.0596 5.5 12.5 6.05964 12.5 6.75V18.3027ZM22.5 18.4639C22.5 18.5125 22.4942 18.5604 22.4854 18.6064C22.4944 18.653 22.5 18.7008 22.5 18.75C22.5 19.1642 22.1642 19.5 21.75 19.5H13.75C13.0596 19.5 12.5 20.0596 12.5 20.75H11C11 20.0596 10.4404 19.5 9.75 19.5H1.75C1.33579 19.5 1 19.1642 1 18.75C1 18.7008 1.00562 18.653 1.01465 18.6064C1.00579 18.5604 1 18.5125 1 18.4639V5.34961C1.00021 4.60434 1.60434 4.00021 2.34961 4H9.75C10.539 4 11.2485 4.33399 11.75 4.86621C12.2515 4.33399 12.961 4 13.75 4H21.1504C21.8957 4.00021 22.4998 4.60436 22.5 5.34961V18.4639Z" fill="#0A0C36"/>
</svg>
