<svg width="24" height="24" viewBox="0 0 24 24" fill="none" xmlns="http://www.w3.org/2000/svg">
<path fill-rule="evenodd" clip-rule="evenodd" d="M6.6686 6.72674C6.6686 6.37996 6.96535 6.09884 7.3314 6.09884H16.1686C16.5347 6.09884 16.8314 6.37996 16.8314 6.72674C16.8314 7.07353 16.5347 7.35465 16.1686 7.35465H7.3314C6.96535 7.35465 6.6686 7.07353 6.6686 6.72674Z" fill="#0A0C36"/>
<path fill-rule="evenodd" clip-rule="evenodd" d="M6.6686 9.23837C6.6686 8.89159 6.96535 8.61047 7.3314 8.61047H16.1686C16.5347 8.61047 16.8314 8.89159 16.8314 9.23837C16.8314 9.58516 16.5347 9.86628 16.1686 9.86628H7.3314C6.96535 9.86628 6.6686 9.58516 6.6686 9.23837Z" fill="#0A0C36"/>
<path fill-rule="evenodd" clip-rule="evenodd" d="M8.43605 15.936C8.43605 15.5893 8.73279 15.3081 9.09884 15.3081H14.4012C14.7672 15.3081 15.064 15.5893 15.064 15.936C15.064 16.2828 14.7672 16.564 14.4012 16.564H9.09884C8.73279 16.564 8.43605 16.2828 8.43605 15.936Z" fill="#0A0C36"/>
<path fill-rule="evenodd" clip-rule="evenodd" d="M4.4593 4.00581V11.1221H19.0407V4.00581H4.4593ZM3.57558 12.3779V19.4942H19.9244V12.3779H3.57558ZM3.48315 3.08104C3.70688 2.86908 4.01033 2.75 4.32674 2.75H19.1733C19.4897 2.75 19.7931 2.86908 20.0169 3.08104C20.2406 3.293 20.3663 3.58048 20.3663 3.88023V11.1607C20.5666 11.2117 20.7513 11.3117 20.9006 11.4531C21.1243 11.6651 21.25 11.9526 21.25 12.2523V19.6198C21.25 19.7682 21.2191 19.9152 21.1592 20.0523C21.0992 20.1894 21.0114 20.314 20.9006 20.419C20.7898 20.5239 20.6583 20.6072 20.5135 20.664C20.3688 20.7208 20.2136 20.75 20.057 20.75H3.44302C3.28636 20.75 3.13122 20.7208 2.98647 20.664C2.84173 20.6072 2.71021 20.5239 2.59943 20.419C2.48865 20.314 2.40077 20.1894 2.34081 20.0523C2.28086 19.9152 2.25 19.7682 2.25 19.6198V12.2523C2.25 11.9526 2.37569 11.6651 2.59943 11.4531C2.74866 11.3117 2.93336 11.2117 3.13372 11.1607V3.88023C3.13372 3.58048 3.25941 3.293 3.48315 3.08104Z" fill="#0A0C36"/>
</svg>
