<svg width="28" height="28" viewBox="0 0 28 28" fill="none" xmlns="http://www.w3.org/2000/svg">
<path d="M12 4.36646C11.1644 4.68187 10.3961 5.19384 9.757 5.87492C8.632 7.07492 8 8.70292 8 10.3999C8 17.8669 5 19.9999 5 19.9999H23C23 19.9999 21.3529 18.8286 20.5 15.1855" stroke="#02163A" stroke-width="1.5" stroke-linecap="round" stroke-linejoin="round"/>
<rect x="14" y="1" width="12" height="12" rx="6" fill="#E82646"/>
<path d="M16.8986 9.09401V8.53001H18.0746V5.39801H18.0266L17.0546 6.43601L16.6406 6.06401L17.7086 4.90601H18.7406V8.53001H19.7606V9.09401H16.8986Z" fill="white"/>
<path d="M20.4963 9.09401V8.53001H21.6723V5.39801H21.6243L20.6523 6.43601L20.2383 6.06401L21.3063 4.90601H22.3383V8.53001H23.3583V9.09401H20.4963Z" fill="white"/>
<path d="M15.7295 23C15.5539 23.3033 15.3016 23.5552 14.998 23.7302C14.6944 23.9053 14.35 23.9974 13.9995 23.9974C13.649 23.9974 13.3047 23.9053 13.0011 23.7302C12.6974 23.5552 12.4451 23.3033 12.2695 23" stroke="#02163A" stroke-width="1.5" stroke-linecap="round" stroke-linejoin="round"/>
</svg>
