<svg width="24" height="24" viewBox="0 0 24 24" fill="none" xmlns="http://www.w3.org/2000/svg">
<path fill-rule="evenodd" clip-rule="evenodd" d="M19.4798 2.17811C19.6851 2.06072 19.9176 1.9993 20.154 2.00001C20.3906 2.00071 20.6228 2.06358 20.8275 2.1823C21.0321 2.30102 21.2019 2.47144 21.32 2.67647C21.438 2.88141 21.5 3.11375 21.5 3.35024V17.2842C21.4997 17.5206 21.4373 17.7537 21.3191 17.9585C21.2009 18.1632 21.0311 18.3333 20.8265 18.4517C20.6219 18.5702 20.3898 18.6329 20.1535 18.6335C19.9171 18.6341 19.6847 18.5726 19.4795 18.4552L13.5508 15.0672H6.75C5.49022 15.0672 4.28204 14.5668 3.39124 13.676C2.50044 12.7852 2 11.577 2 10.3172C2 9.05746 2.50044 7.84928 3.39124 6.95848C4.28204 6.06768 5.49022 5.56724 6.75 5.56724H13.5508L19.4798 2.17811ZM14.5 6.75241V13.882L20 17.025V3.60852L14.5 6.75241ZM6.75 7.06723C5.88805 7.06724 5.0614 7.40965 4.4519 8.01914C3.84241 8.62863 3.5 9.45528 3.5 10.3172C3.5 11.1792 3.84241 12.0058 4.4519 12.6153C5.0614 13.2248 5.88805 13.5672 6.75 13.5672H13V7.06723H6.75Z" fill="#0A0C36"/>
<path fill-rule="evenodd" clip-rule="evenodd" d="M5.88527 13.5672H11.4005L12.1705 18.9587C12.2651 19.6717 12.0743 20.3932 11.6399 20.9664C11.2054 21.5397 10.5623 21.9183 9.85025 22.02C9.13822 22.1217 8.41481 21.9383 7.83722 21.5097C7.25964 21.081 6.87455 20.4418 6.76565 19.7308L7.507 19.6172L6.76453 19.7233L5.88527 13.5672ZM8.24886 19.507C8.29861 19.826 8.47182 20.1127 8.73115 20.3052C8.99138 20.4983 9.31731 20.5809 9.63812 20.5351C9.95893 20.4892 10.2487 20.3187 10.4444 20.0604C10.6395 19.803 10.7255 19.4793 10.6839 19.1591L10.0995 15.0672H7.61473L8.24886 19.507Z" fill="#0A0C36"/>
</svg>
