<svg width="24" height="24" viewBox="0 0 24 24" fill="none" xmlns="http://www.w3.org/2000/svg">
<path d="M2.4454 7.37872L11.4454 11.3788L12.0546 10.008L3.0546 6.008L2.4454 7.37872ZM12.5 21.6934V10.6934H11V21.6934H12.5ZM12.0546 11.3788L21.0546 7.37872L20.4454 6.008L11.4454 10.008L12.0546 11.3788Z" fill="white"/>
<path d="M3.5 7.18061V17.205L11.75 20.872L20 17.205V7.18061L11.75 3.51362L3.5 7.18061ZM21.5 17.3037C21.4999 17.837 21.1858 18.3204 20.6982 18.5371L12.2979 22.2705C11.9925 22.406 11.6497 22.4229 11.335 22.3212L11.2021 22.2705L2.80176 18.5371C2.31426 18.3204 2.00008 17.837 2 17.3037V7.08296C2.00013 6.54958 2.31433 6.06619 2.80176 5.84956L11.2021 2.11616L11.335 2.06538C11.6048 1.97821 11.8952 1.97821 12.165 2.06538L12.2979 2.11616L20.6982 5.84956C21.1858 6.06622 21.4999 6.54965 21.5 7.08296V17.3037Z" fill="white"/>
<path d="M17 12.6934C17 13.1076 16.6642 13.4434 16.25 13.4434C15.8358 13.4434 15.5 13.1076 15.5 12.6934V9.18067L6.94531 5.37891C6.5668 5.21068 6.39623 4.76719 6.56445 4.38868C6.73268 4.01016 7.17617 3.83959 7.55469 4.00782L16.1982 7.84961C16.6858 8.06628 16.9999 8.54969 17 9.08301V12.6934Z" fill="white"/>
</svg>
