<svg width="24" height="24" viewBox="0 0 24 24" fill="none" xmlns="http://www.w3.org/2000/svg">
<path d="M21 11.75C21 6.64137 16.8586 2.5 11.75 2.5C6.64137 2.5 2.5 6.64137 2.5 11.75C2.5 16.8586 6.64137 21 11.75 21C16.8586 21 21 16.8586 21 11.75ZM14 8.75C14 8.15326 13.7628 7.58114 13.3408 7.15918C12.9189 6.73722 12.3467 6.5 11.75 6.5C11.1533 6.5 10.5811 6.73722 10.1592 7.15918C9.73722 7.58114 9.5 8.15326 9.5 8.75C9.5 9.34674 9.73722 9.91886 10.1592 10.3408C10.5811 10.7628 11.1533 11 11.75 11C12.3467 11 12.9189 10.7628 13.3408 10.3408C13.7628 9.91886 14 9.34674 14 8.75ZM22.5 11.75C22.5 17.6871 17.6871 22.5 11.75 22.5C5.81294 22.5 1 17.6871 1 11.75C1 5.81294 5.81294 1 11.75 1C17.6871 1 22.5 5.81294 22.5 11.75ZM15.5 8.75C15.5 9.74456 15.1046 10.6981 14.4014 11.4014C14.3455 11.4573 14.2875 11.5105 14.2285 11.5625C14.8119 11.8412 15.3495 12.2186 15.8154 12.6846C16.8938 13.7629 17.5 15.225 17.5 16.75V17.75C17.5 18.1642 17.1642 18.5 16.75 18.5C16.3358 18.5 16 18.1642 16 17.75V16.75C16 15.6228 15.5519 14.5421 14.7549 13.7451C14.0077 12.9979 13.0113 12.557 11.9609 12.5049L11.75 12.5C10.6228 12.5 9.54215 12.9481 8.74512 13.7451C7.94809 14.5421 7.5 15.6228 7.5 16.75V17.75C7.5 18.1642 7.16421 18.5 6.75 18.5C6.33579 18.5 6 18.1642 6 17.75V16.75C6 15.225 6.60624 13.7629 7.68457 12.6846C8.15028 12.2189 8.68739 11.8412 9.27051 11.5625C9.21175 11.5107 9.15435 11.4571 9.09863 11.4014C8.39537 10.6981 8 9.74456 8 8.75C8 7.75544 8.39537 6.80189 9.09863 6.09863C9.80189 5.39537 10.7554 5 11.75 5C12.7446 5 13.6981 5.39537 14.4014 6.09863C15.1046 6.80189 15.5 7.75544 15.5 8.75Z" fill="#0A0C36"/>
</svg>
