<svg width="24" height="24" viewBox="0 0 24 24" fill="none" xmlns="http://www.w3.org/2000/svg">
<path fill-rule="evenodd" clip-rule="evenodd" d="M3 7C3 5.67932 4.10809 4.6087 5.475 4.6087H7.725C8.09779 4.6087 8.4 4.90068 8.4 5.26087C8.4 5.62106 8.09779 5.91304 7.725 5.91304H5.475C4.85368 5.91304 4.35 6.39969 4.35 7V19.1739C4.35 19.7742 4.85367 20.2609 5.475 20.2609H10.875C11.2478 20.2609 11.55 20.5529 11.55 20.913C11.55 21.2732 11.2478 21.5652 10.875 21.5652H5.475C4.1081 21.5652 3 20.4946 3 19.1739V7Z" fill="#0A0C36"/>
<path fill-rule="evenodd" clip-rule="evenodd" d="M13.35 5.26087C13.35 4.90068 13.6522 4.6087 14.025 4.6087H16.275C17.6419 4.6087 18.75 5.67933 18.75 7V14.8261C18.75 15.1863 18.4478 15.4783 18.075 15.4783C17.7022 15.4783 17.4 15.1863 17.4 14.8261V7C17.4 6.39968 16.8963 5.91304 16.275 5.91304H14.025C13.6522 5.91304 13.35 5.62106 13.35 5.26087Z" fill="#0A0C36"/>
<path fill-rule="evenodd" clip-rule="evenodd" d="M9.3618 3.88466C9.07465 4.21194 8.94282 4.62766 8.88639 4.94125C8.80824 5.37556 8.45886 5.79483 7.95 5.89201V7.21739H13.8V5.89201C13.2912 5.79483 12.9418 5.37558 12.8636 4.94128C12.8072 4.62767 12.6753 4.21195 12.3882 3.88466C12.1242 3.58378 11.6848 3.30435 10.875 3.30435C10.0652 3.30435 9.62579 3.58378 9.3618 3.88466ZM8.33202 3.04123C8.86066 2.4387 9.68135 2 10.875 2C12.0686 2 12.8893 2.4387 13.418 3.04123C13.8857 3.57438 14.0862 4.19047 14.1744 4.6182C14.7251 4.68882 15.15 5.14427 15.15 5.69565V7.34783C15.15 7.99614 14.6061 8.52174 13.935 8.52174H7.815C7.14398 8.52174 6.6 7.99616 6.6 7.34783V5.69565C6.6 5.14429 7.0249 4.68881 7.57558 4.6182C7.66384 4.19045 7.86425 3.57437 8.33202 3.04123Z" fill="#0A0C36"/>
<path fill-rule="evenodd" clip-rule="evenodd" d="M20.8023 16.5388C21.0659 16.7935 21.0659 17.2065 20.8023 17.4612L16.3023 21.809C16.0387 22.0637 15.6113 22.0637 15.3477 21.809L13.5477 20.0699C13.2841 19.8152 13.2841 19.4022 13.5477 19.1475C13.8113 18.8928 14.2387 18.8928 14.5023 19.1475L15.825 20.4255L19.8477 16.5388C20.1113 16.2842 20.5387 16.2842 20.8023 16.5388Z" fill="#0A0C36"/>
</svg>
