<svg width="134" height="38" viewBox="0 0 134 38" fill="none" xmlns="http://www.w3.org/2000/svg">
<path fill-rule="evenodd" clip-rule="evenodd" d="M28.0198 17.3862C28.0198 21.437 24.7042 24.7207 20.6141 24.7207C16.5241 24.7207 13.2085 21.437 13.2085 17.3862C13.2085 13.3355 16.5241 10.0517 20.6141 10.0517C24.7042 10.0517 28.0198 13.3355 28.0198 17.3862ZM20.6141 21.816C23.0843 21.816 25.0869 19.8327 25.0869 17.3862C25.0869 14.9397 23.0843 12.9565 20.6141 12.9565C18.1439 12.9565 16.1414 14.9397 16.1414 17.3862C16.1414 19.8327 18.1439 21.816 20.6141 21.816Z" fill="#263063"/>
<path d="M20.6871 4H7.83777C7.37508 4 7 4.36948 7 4.82525V30.287C7 30.5149 7.18754 30.6996 7.41888 30.6996H9.51406C9.7454 30.6996 9.93294 30.5149 9.93294 30.287V7.73002C9.93294 7.27424 10.308 6.90476 10.7707 6.90476H20.6871C26.5454 6.90476 31.2945 11.6083 31.2945 17.4103C31.2945 23.201 26.4836 27.9159 20.6137 27.9159C18.0787 27.9159 15.7417 27.0339 13.9023 25.5593C13.6144 25.3286 13.1592 25.5217 13.1592 25.8873V28.1698C13.1592 28.4471 13.2996 28.7074 13.5395 28.8525C15.6031 30.0998 18.0267 30.8207 20.6137 30.8207C28.0803 30.8207 34.2275 24.8281 34.2275 17.4103C34.2275 10.004 28.1652 4 20.6871 4Z" fill="#263063"/>
<path d="M64.1126 7.23224C64.1126 6.76433 64.2822 6.3744 64.6215 6.06245C64.9608 5.72822 65.3793 5.56111 65.8769 5.56111C66.3972 5.56111 66.8156 5.72822 67.1323 6.06245C67.449 6.3744 67.6073 6.76433 67.6073 7.23224C67.6073 7.70016 67.449 8.10123 67.1323 8.43546C66.8156 8.7474 66.3972 8.90338 65.8769 8.90338C65.3793 8.90338 64.9608 8.7474 64.6215 8.43546C64.2822 8.10123 64.1126 7.70016 64.1126 7.23224ZM64.5197 18.7296H67.2341V27.4864C67.121 27.5309 66.9513 27.5755 66.7251 27.6201C66.4989 27.6869 66.2501 27.7203 65.9787 27.7203C65.5037 27.7203 65.1418 27.6312 64.8929 27.4529C64.6441 27.2524 64.5197 26.9405 64.5197 26.5171V18.7296ZM67.2341 20.0331H64.5197V12.1788C64.6328 12.1342 64.8025 12.0897 65.0287 12.0451C65.2775 11.9783 65.5376 11.9448 65.809 11.9448C66.2841 11.9448 66.6347 12.0451 66.8609 12.2456C67.1097 12.4239 67.2341 12.7358 67.2341 13.1815V20.0331Z" fill="#263063"/>
<path d="M55.4661 14.9863V20.2671H52.7517V15.1868C52.7517 14.6744 52.8422 14.2733 53.0231 13.9836C53.2267 13.6717 53.5547 13.3709 54.0071 13.0812C54.5952 12.7024 55.3982 12.3793 56.4161 12.112C57.434 11.8223 58.565 11.6775 59.8091 11.6775C61.6186 11.6775 62.5234 12.1231 62.5234 13.0144C62.5234 13.2372 62.4895 13.4489 62.4216 13.6494C62.3538 13.8276 62.2633 13.9836 62.1502 14.1173C61.924 14.0727 61.63 14.0282 61.268 13.9836C60.9061 13.9391 60.5442 13.9168 60.1823 13.9168C59.1418 13.9168 58.2257 14.0282 57.434 14.251C56.6423 14.4515 55.9863 14.6966 55.4661 14.9863ZM52.7517 18.7296L55.4661 19.1307V27.4864C55.353 27.5309 55.1833 27.5755 54.9571 27.6201C54.7309 27.6869 54.4821 27.7203 54.2107 27.7203C53.7357 27.7203 53.3738 27.6312 53.1249 27.4529C52.8761 27.2524 52.7517 26.9405 52.7517 26.5171V18.7296Z" fill="#263063"/>
<path d="M41.5186 18.7296H44.233V23.342C44.233 24.2332 44.4931 24.8683 45.0134 25.2471C45.5336 25.6036 46.2462 25.7818 47.1509 25.7818C47.5355 25.7818 47.9653 25.715 48.4403 25.5813C48.9153 25.4476 49.3111 25.2916 49.6278 25.1134C49.7635 25.2471 49.8879 25.4142 50.001 25.6147C50.1141 25.8152 50.1707 26.0492 50.1707 26.3166C50.1707 26.8068 49.8766 27.2079 49.2885 27.5198C48.7004 27.8317 47.8861 27.9877 46.8456 27.9877C45.2622 27.9877 43.9729 27.6423 42.9776 26.9516C42.005 26.2609 41.5186 25.1134 41.5186 23.5091V18.7296ZM42.9097 14.6521V12.4462H49.7975C49.8653 12.5353 49.9332 12.6801 50.001 12.8807C50.0689 13.0812 50.1028 13.2929 50.1028 13.5157C50.1028 13.8722 50.0123 14.1507 49.8314 14.3513C49.6504 14.5518 49.4016 14.6521 49.0849 14.6521H42.9097ZM44.233 19.7323H41.5186V7.63332C41.6317 7.58875 41.8014 7.54419 42.0276 7.49963C42.2764 7.43278 42.5365 7.39936 42.8079 7.39936C43.283 7.39936 43.6336 7.49962 43.8598 7.70016C44.1086 7.87842 44.233 8.17922 44.233 8.60257V19.7323Z" fill="#263063"/>
<path d="M73.7699 19.8905H70.2596C70.2273 19.7155 70.2003 19.5404 70.1788 19.3654C70.1573 19.1653 70.1465 18.9402 70.1465 18.6902C70.1465 18.265 70.195 17.9524 70.2919 17.7524C70.3996 17.5273 70.5396 17.4148 70.7119 17.4148H74.2223C74.2438 17.5648 74.2653 17.7399 74.2869 17.9399C74.3192 18.14 74.3353 18.3526 74.3353 18.5776C74.3353 18.9777 74.2869 19.3028 74.19 19.5529C74.093 19.778 73.953 19.8905 73.7699 19.8905Z" fill="#263063"/>
<path d="M122.594 24.7878V13.9254H126.088V25.0552C126.088 25.5231 125.987 25.9019 125.783 26.1916C125.579 26.4812 125.251 26.7597 124.799 27.0271C124.301 27.3391 123.634 27.6287 122.797 27.8961C121.96 28.1858 120.965 28.3306 119.811 28.3306C118.115 28.3306 116.611 28.0409 115.299 27.4616C113.987 26.8823 112.958 25.991 112.211 24.7878C111.487 23.5623 111.125 22.0026 111.125 20.1086C111.125 18.1701 111.476 16.5881 112.177 15.3626C112.878 14.1371 113.84 13.2347 115.061 12.6554C116.283 12.0538 117.617 11.753 119.065 11.753C119.925 11.753 120.728 11.8644 121.474 12.0872C122.22 12.31 122.809 12.5885 123.238 12.9228V15.9308C122.831 15.552 122.311 15.2289 121.678 14.9615C121.044 14.6719 120.309 14.527 119.472 14.527C118.59 14.527 117.776 14.7164 117.029 15.0952C116.305 15.4517 115.729 16.0422 115.299 16.8666C114.869 17.6911 114.654 18.7829 114.654 20.1421C114.654 22.0137 115.107 23.3841 116.011 24.253C116.916 25.122 118.126 25.5565 119.642 25.5565C120.343 25.5565 120.92 25.4785 121.372 25.3226C121.847 25.1666 122.254 24.9883 122.594 24.7878ZM126.088 14.6942H122.594V6.17138C122.752 6.12682 122.978 6.07112 123.272 6.00427C123.566 5.93743 123.872 5.904 124.188 5.904C124.844 5.904 125.319 6.02655 125.613 6.27165C125.93 6.49447 126.088 6.89554 126.088 7.47487V14.6942Z" fill="#263063"/>
<path d="M109.478 20.0418C109.478 21.7129 109.15 23.1724 108.494 24.4202C107.838 25.6679 106.911 26.6372 105.712 27.3279C104.513 27.9964 103.1 28.3306 101.471 28.3306C99.8423 28.3306 98.4285 27.9964 97.2297 27.3279C96.0308 26.6372 95.1034 25.6791 94.4475 24.4536C93.7915 23.2058 93.4635 21.7352 93.4635 20.0418C93.4635 18.3484 93.7915 16.8889 94.4475 15.6634C95.1261 14.4156 96.0648 13.4575 97.2636 12.7891C98.4851 12.0983 99.8875 11.753 101.471 11.753C103.077 11.753 104.479 12.0983 105.678 12.7891C106.877 13.4575 107.804 14.4156 108.46 15.6634C109.139 16.8889 109.478 18.3484 109.478 20.0418ZM101.471 14.527C100.114 14.527 99.028 15.0172 98.2136 15.9976C97.422 16.978 97.0261 18.3261 97.0261 20.0418C97.0261 21.7798 97.4106 23.139 98.1797 24.1194C98.9714 25.0775 100.068 25.5565 101.471 25.5565C102.873 25.5565 103.959 25.0663 104.728 24.0859C105.52 23.1055 105.916 21.7575 105.916 20.0418C105.916 18.3261 105.52 16.978 104.728 15.9976C103.936 15.0172 102.851 14.527 101.471 14.527Z" fill="#263063"/>
<path d="M83.9407 28.2972C83.0133 28.2972 82.1537 28.1746 81.362 27.9295C80.5703 27.6844 79.9596 27.4059 79.5298 27.094V24.0525C79.9596 24.4313 80.4912 24.7767 81.1245 25.0886C81.7805 25.3783 82.5496 25.5231 83.4317 25.5231C84.902 25.5231 86.0669 25.0775 86.9265 24.1862C87.8087 23.2949 88.2497 21.8912 88.2497 19.9749C88.2497 18.638 88.0349 17.5797 87.6051 16.7998C87.1753 15.9976 86.5985 15.4183 85.8747 15.0618C85.1508 14.7053 84.3591 14.527 83.4996 14.527C82.7758 14.527 82.1537 14.6162 81.6335 14.7944C81.1132 14.9727 80.6608 15.1732 80.2763 15.396V26.1916H76.7815V15.1955C76.7815 14.7276 76.872 14.3488 77.053 14.0591C77.2565 13.7472 77.5958 13.4464 78.0709 13.1567C78.7042 12.7779 79.4733 12.4548 80.3781 12.1875C81.3055 11.8978 82.346 11.753 83.4996 11.753C85.0604 11.753 86.4628 12.0426 87.7069 12.622C88.9736 13.2013 89.9688 14.0926 90.6927 15.2958C91.4165 16.499 91.7784 18.0587 91.7784 19.9749C91.7784 21.8243 91.4391 23.3729 90.7605 24.6207C90.1046 25.8462 89.1771 26.7709 87.9783 27.3948C86.8021 27.9964 85.4562 28.2972 83.9407 28.2972ZM80.2763 25.1889V33.8453C80.1179 33.9122 79.8918 33.9679 79.5977 34.0125C79.3263 34.0793 79.0209 34.1127 78.6816 34.1127C78.0482 34.1127 77.5732 33.9902 77.2566 33.7451C76.9399 33.5 76.7815 33.0878 76.7815 32.5084V25.122L80.2763 25.1889Z" fill="#263063"/>
</svg>
